<?xml version="1.0" encoding="UTF-8" standalone="no"?>
<!DOCTYPE svg PUBLIC "-//W3C//DTD SVG 1.1//EN" "http://www.w3.org/Graphics/SVG/1.1/DTD/svg11.dtd">
<svg xmlns="http://www.w3.org/2000/svg" version="1.1" viewBox="0.00 0.00 860.00 290.00">
<path fill="#919292" fill-opacity="0.573" d="
  M 860.00 188.56
  L 860.00 209.81
  C 851.55 259.85 791.37 282.55 748.17 288.59
  Q 739.92 289.74 728.25 289.75
  Q 644.41 289.76 560.67 289.75
  A 0.68 0.67 90.0 0 1 560.00 289.07
  C 560.00 274.28 560.46 120.12 559.48 119.59
  Q 558.99 119.33 559.00 119.88
  C 559.01 122.52 559.15 125.07 558.57 127.64
  C 549.58 167.17 512.99 191.60 476.55 203.07
  Q 410.98 223.70 344.15 205.25
  Q 343.54 205.08 343.56 205.71
  C 343.75 211.69 344.25 218.34 344.30 223.61
  Q 344.57 256.81 343.74 290.00
  L 221.06 290.00
  Q 219.85 273.47 220.87 257.59
  Q 220.96 256.21 219.83 257.00
  Q 188.75 278.93 152.35 286.79
  C 144.91 288.40 136.64 289.10 128.69 290.00
  L 105.19 290.00
  Q 86.84 288.83 81.24 287.96
  Q 54.04 283.78 30.93 269.33
  C 15.75 259.84 5.93 237.73 2.32 220.89
  C -0.13 209.52 0.44 198.60 0.41 188.11
  Q 0.25 133.27 0.00 78.44
  L 0.00 1.94
  Q 0.27 1.67 0.27 1.23
  Q 0.27 0.75 0.75 0.75
  L 80.74 0.75
  Q 81.55 0.75 81.54 1.56
  Q 81.46 7.67 81.48 14.31
  Q 81.89 107.06 82.08 199.81
  Q 82.10 209.42 83.80 217.54
  C 93.01 261.55 153.61 262.45 185.73 249.48
  Q 210.92 239.31 218.72 213.23
  C 219.58 210.36 219.98 207.74 219.99 204.54
  Q 220.33 110.52 220.49 16.50
  Q 220.51 8.89 220.87 1.28
  Q 220.90 0.72 221.46 0.72
  Q 307.75 0.99 393.99 1.29
  Q 430.77 1.42 464.75 9.54
  C 489.74 15.51 517.28 27.88 535.42 45.57
  C 544.67 54.59 552.03 62.84 555.64 74.71
  Q 558.34 83.56 559.33 92.77
  Q 559.44 93.80 559.69 92.79
  Q 560.00 91.45 560.00 89.00
  Q 559.99 45.41 560.00 1.84
  A 0.53 0.53 0.0 0 1 560.53 1.31
  Q 630.78 1.00 701.01 0.76
  C 719.81 0.70 737.63 2.71 755.74 6.53
  C 780.08 11.65 809.90 23.35 815.13 51.23
  Q 819.54 74.76 801.56 89.89
  C 787.95 101.34 768.93 107.64 751.65 110.49
  C 749.94 110.77 746.57 110.57 744.19 111.51
  Q 743.28 111.87 744.26 111.95
  C 781.94 114.98 840.97 131.03 855.99 170.66
  C 858.07 176.16 858.85 182.51 860.00 188.56
  Z
  M 414.78 185.39
  Q 441.94 179.98 458.38 157.85
  C 473.53 137.45 474.04 106.37 466.93 83.29
  C 461.89 66.94 452.34 56.59 438.65 46.64
  C 420.88 33.72 393.90 28.53 372.41 27.82
  C 363.08 27.52 353.93 26.94 344.54 26.99
  Q 344.01 26.99 344.01 27.52
  Q 343.98 85.96 344.01 144.38
  Q 344.02 157.46 345.54 162.97
  C 352.07 186.57 378.67 189.82 399.92 187.20
  C 404.84 186.60 409.92 186.36 414.78 185.39
  Z
  M 644.29 28.70
  L 644.74 101.53
  Q 644.74 102.03 645.24 102.03
  Q 659.12 102.06 673.00 102.00
  C 677.83 101.98 682.59 101.37 687.94 100.91
  Q 701.92 99.70 715.68 94.44
  C 723.20 91.57 729.33 86.81 732.78 79.39
  C 738.78 66.46 736.88 49.62 724.24 41.26
  Q 708.29 30.71 688.23 29.10
  C 684.30 28.78 680.35 28.05 676.57 27.96
  Q 660.92 27.60 645.18 27.79
  A 0.90 0.90 0.0 0 0 644.29 28.70
  Z
  M 774.21 211.09
  C 783.15 170.76 756.34 139.65 718.00 132.50
  C 707.85 130.60 696.63 128.93 685.54 128.89
  Q 665.13 128.80 644.49 129.03
  Q 644.00 129.04 644.00 129.52
  L 643.99 262.99
  A 0.73 0.72 -0.4 0 0 644.73 263.71
  Q 667.12 263.21 689.48 263.03
  Q 696.60 262.98 702.96 262.04
  C 732.11 257.77 764.68 247.73 773.81 214.76
  C 774.15 213.53 773.94 212.29 774.21 211.09
  Z"
/>
</svg>
